<svg xmlns="http://www.w3.org/2000/svg" aria-hidden="true" style="position:absolute;width:0;height:0;overflow:hidden">
  <defs>
    <symbol id="logo" viewBox="0 0 37 32">
      <path fill="#ff8126" d="M16.883 7.105 1.762 11.029c-.947.239-1.709 1.06-1.709 1.856L0 19.46c0 .769.763 1.591 1.709 1.829l15.042 3.765c.947.239 2.472.239 3.419-.026l15.121-3.897c.947-.239 1.709-1.06 1.709-1.856l.053-6.575c0-.769-.763-1.591-1.709-1.829L20.302 7.106c-.947-.239-2.472-.239-3.419 0z" style="fill:var(--color1, #ff8126)"/>
      <path fill="#fff" d="M18.434 24.577c-.605 0-1.183-.053-1.604-.159L2.761 21.024c-.999-.239-1.788-1.087-1.788-1.909l.053-5.912c0-.822.789-1.67 1.815-1.935l14.122-3.526a7.657 7.657 0 0 1 1.709-.186c.605 0 1.183.053 1.604.159l14.043 3.367c.999.239 1.788 1.087 1.788 1.909l-.053 5.912c0 .822-.789 1.67-1.814 1.935l-14.122 3.553a7.59 7.59 0 0 1-1.683.186zm.184-16.491c-.579 0-1.157.053-1.578.159L2.945 11.771c-.763.186-1.394.848-1.42 1.405l-.026 5.939c0 .583.631 1.22 1.394 1.405l14.043 3.367c.394.106.92.159 1.499.159s1.157-.053 1.578-.159l14.121-3.526c.763-.186 1.394-.848 1.394-1.405l.053-5.912c0-.583-.631-1.22-1.394-1.405L20.118 8.245c-.394-.106-.92-.159-1.499-.159z" style="fill:var(--color2, #fff)"/>
      <path fill="#fff" d="M14.753 15.801c.184-.027.342-.08.526-.133.394-.133.631-.345.736-.61.053-.159.079-.292.079-.451 0-.371-.184-.663-.579-.848-.316-.159-.736-.239-1.289-.239-.736 0-1.394.133-1.972.371a3.78 3.78 0 0 0-.763.477c-.316.265-.473.583-.473.875 0 .318.158.53.473.61.026 0 .105 0 .105-.053v-.053l-.026-.027c-.053-.053-.105-.08-.131-.106a.448.448 0 0 1-.079-.265c0-.159.105-.371.342-.61s.5-.424.763-.557a4.31 4.31 0 0 1 1.788-.371c.421 0 .736.053.973.186.263.133.394.318.394.61 0 .106-.026.239-.079.371-.079.212-.237.371-.526.477-.21.08-.473.133-.736.133h-.237c-.026 0-.053-.027-.079-.027s-.053-.027-.105-.027c-.158-.053-.316-.027-.394.08-.026 0-.053.027-.053.08 0 .133.184.159.342.186.184.027.316.053.394.053.158.053.316.159.421.292s.158.265.158.398a.753.753 0 0 1-.105.398c-.158.292-.368.53-.684.716-.289.186-.605.292-.894.292-.473 0-.841-.239-1.078-.689a9.932 9.932 0 0 0 1.289-1.511c.053-.08.289-.318.631-.663s.579-.557.71-.61c.21-.027.237-.133.237-.212a.23.23 0 0 0-.105-.186c-.132-.08-.316-.08-.5 0-.237.08-.684.583-1.394 1.511l-.579.769a3.627 3.627 0 0 1-.421.53l-.131-.53c-.079-.239-.184-.345-.342-.345-.053 0-.105 0-.184.026-.158.08-.316.265-.526.61-.184.345-.289.636-.289.875 0 .265.079.424.237.504.184.106.526-.053 1.026-.477.263.424.736.663 1.394.663.447 0 .894-.106 1.315-.318s.71-.477.868-.795c.079-.133.105-.292.105-.477a.965.965 0 0 0-.289-.689.615.615 0 0 0-.263-.212zm-4.024 1.75c0-.265.158-.61.447-1.034.026.026.131.133.342.795-.447.451-.631.53-.71.53a.537.537 0 0 1-.079-.292zM27.244 15.96c-.105 0-.21.053-.316.159-.079.106-.158.186-.184.239-.21.212-.526.477-.92.795-.684.53-.815.477-.815.451 0-.08.079-.265.552-.769.579-.636.579-.663.579-.716 0-.08-.026-.212-.289-.212-.105 0-.289.08-.736.663l-.158.239c-.026.026-.079.106-.158.186a2.085 2.085 0 0 1-.447.398c-.263.212-.5.292-.684.292-.158 0-.21-.08-.21-.239 0-.186.131-.451.394-.795l.447-.557v-.026c.026-.053.026-.106-.053-.186-.053-.053-.105-.08-.158-.08s-.079 0-.105.027l-.158.106a.42.42 0 0 1-.21.08c-.105 0-.131-.027-.131-.053l.131-.186c.105-.159.184-.265.184-.371 0-.133-.079-.186-.21-.186-.184 0-.316.212-.421.583a5.953 5.953 0 0 1-.763 1.06c-.158.159-.316.318-.5.477-.316.265-.579.424-.763.424s-.237-.08-.237-.265c0-.106.026-.186.053-.292h.053c.237 0 .526-.106.92-.345.368-.239.579-.477.579-.742 0-.106-.026-.186-.105-.239s-.158-.106-.289-.106c-.316 0-.657.212-1.052.61-.263.265-.421.53-.5.742a3.286 3.286 0 0 1-.368.318c-.21.159-.394.239-.526.239-.237 0-.421-.239-.526-.742.105.053.237.08.447.08s.473-.08.71-.212c.316-.159.5-.398.552-.663v-.026c0-.106-.053-.212-.158-.318a.47.47 0 0 0-.394-.186c-.184 0-.421.053-.736.186.079-.106.184-.239.342-.424.447-.557.447-.583.447-.61 0-.08-.053-.159-.263-.159-.079 0-.105 0-.131.027-.21.159-.579.636-1.131 1.485-.105.186-.21.318-.289.477-.71.875-.999 1.06-1.157 1.06-.026 0-.053 0-.079-.106v-.026c0-.106.079-.318.394-.769.394-.61.394-.636.394-.663 0-.053-.026-.08-.079-.133s-.105-.08-.184-.08h-.026l-.026-.08c-.158-.106-.289-.159-.447-.159-.368 0-.789.239-1.236.663-.447.451-.657.822-.657 1.167 0 .159.079.292.21.398.105.08.237.133.368.133s.316-.106.579-.345l.263-.265v.026c0 .239.105.398.316.477s.473-.026.789-.345c-.026.053-.026.08-.026.106 0 .133.079.239.263.318l.053.026.026-.053c.158-.292.263-.53.342-.636.237.477.526.716.868.716.237 0 .5-.133.842-.371.026-.026.079-.053.105-.08.026.212.158.371.447.451.053.026.105.026.158.026.237 0 .526-.133.868-.371.316-.212.579-.477.789-.769.053-.053.105-.133.158-.212l.421-.53c.053.08.131.133.21.159-.079.133-.158.265-.237.451a1.404 1.404 0 0 0-.158.61c0 .504.289.61.552.61.237 0 .526-.133.868-.398.053-.026.105-.08.131-.106v.053a.34.34 0 0 0 .105.265c.184.212.526.133.999-.239l.736-.583-.158.345a6.275 6.275 0 0 1-.579 1.06c-.263.371-.5.557-.736.557-.131 0-.289-.133-.473-.371l-.105-.133v.186c0 .159.053.318.158.451s.263.212.394.212c.421 0 .868-.345 1.289-1.034.289-.504.473-.875.605-1.113 0-.026.053-.106.289-.451.289-.451.289-.477.289-.504 0-.159-.079-.239-.21-.239zm-7.837.239c.316-.186.579-.292.789-.292.026 0 .053 0 .079.027s.026.027.026.053c0 .186-.158.345-.5.504-.289.159-.552.239-.71.239-.105 0-.158 0-.21-.027.079-.159.263-.345.526-.504zm2.236.504c-.237.159-.447.239-.579.239.131-.212.316-.398.552-.583s.368-.239.421-.239h.105v.026c-.079.212-.237.398-.5.557zm-5.812.848c0-.239.21-.557.631-.954s.736-.583.973-.583c.053 0 .079 0 .079.026l-.631.901c-.5.663-.789.795-.947.795-.053-.026-.105-.026-.105-.186z" style="fill:var(--color2, #fff)"/>
      <path fill="#605656" d="M9.546 5.408c0-.027-.026-.027-.053-.027H9.44l-.21.133-.394-.636.053-.027c.158-.106.263-.212.394-.318.105-.106.184-.239.237-.371s.079-.292.053-.424a1.194 1.194 0 0 0-.184-.477c-.079-.133-.184-.239-.289-.318s-.237-.133-.368-.159c-.132-.026-.263-.026-.394 0s-.263.08-.394.159c-.158.106-.289.186-.421.292s-.289.186-.421.292c-.026 0-.026.026-.026.053v.053l.263.371c.026.027.053.027.079.027l.158-.106L8.812 5.86l-.184.106c-.026 0-.026.027-.026.053v.053l.237.345c0 .027.026.027.053.027h.026l.789-.53c.026-.027.026-.053.026-.08l-.184-.424zM8.021 3.553l.237-.159c.053-.027.132-.053.184-.08h.184c.052 0 .105.026.158.08a.32.32 0 0 1 .132.133c.079.106.105.186.105.265s0 .159-.053.212c-.026.08-.079.133-.158.186s-.158.133-.237.186l-.026.027-.526-.848zM13.149 3.579h-.053l-.263.106-.631-.769a.503.503 0 0 0 .158-.186c.053-.08.079-.186.105-.292s.026-.212.026-.318-.026-.212-.079-.318a.896.896 0 0 0-.237-.371c-.105-.08-.21-.159-.316-.186-.132-.026-.237-.053-.394-.053-.131 0-.263.053-.394.106-.158.053-.316.133-.473.186-.158.08-.316.133-.473.212-.026 0-.026.026-.026.026v.053l.184.398c.026.026.053.053.079.026l.184-.08.868 2.174-.184.08c-.026 0-.026.027-.026.027v.053l.184.371c0 .027.026.027.053.027h.026l.815-.318c.026 0 .053-.053.026-.08l-.132-.424c0-.027-.026-.027-.026-.027h-.053l-.184.08-.342-.822.184-.08.605.795-.079.027c-.026 0-.026.027-.026.027v.053l.21.371c.026.027.053.053.079.027l.736-.371c.026-.027.053-.053.026-.08l-.132-.424-.026-.026zm-1.736-.822-.053.026-.316-.848.289-.106c.053-.026.131-.053.184-.053s.105 0 .158.026a.523.523 0 0 1 .131.08c.053.026.079.08.105.159.053.106.053.186.053.265-.026.08-.053.133-.079.186-.053.053-.105.106-.184.133-.105.053-.21.106-.289.133zM15.831 2.466l-.316.08c-.026 0-.026.026-.053.026v.053l.079.451-.71.159-.158-.875.631-.159c.026 0 .053-.053.053-.08l-.053-.318c-.053-.053-.053-.053-.053-.08h-.053l-.631.133-.158-.875.684-.186.132.398c0 .026.053.053.079.053l.342-.08c.026 0 .053-.053.053-.08l-.21-.875c0-.026-.053-.053-.079-.053l-1.841.398c-.026 0-.053.053-.053.08l.053.424c0 .026 0 .026.026.053.026 0 .026.026.053 0l.21-.053.447 2.254-.21.053c-.026 0-.026.027-.053.027v.053l.105.424c0 .026.026.053.053.053h.026l1.841-.424c.026 0 .026-.026.053-.026v-.053l-.21-.901c0-.026-.026-.053-.079-.053zM20.065 0h-.999c-.026 0-.053.026-.053.053l-.526 2.015L18.198.08c0-.026-.026-.053-.053-.053L16.988.001c-.026 0-.053.026-.079.053l-.026.424c0 .026.026.053.053.08l.342.026-.053 2.227h-.316c-.026 0-.026 0-.053.026 0 0-.026.026-.026.053v.424c0 .026.026.053.053.08l1.078.053c.026 0 .026 0 .053-.026s.026-.026.026-.053v-.424c0-.026-.026-.053-.053-.053h-.21l.053-1.432.289 1.776c0 .026.026.053.053.053h.447c.026 0 .053-.026.053-.053l.526-1.935-.026 1.564h-.21c-.026 0-.053.026-.079.053l-.026.451c0 .027 0 .027.026.053 0 0 .026.026.053.026l.947.026c.026 0 .026 0 .053-.026 0 0 .026-.026.026-.053v-.451c0-.026-.026-.053-.053-.053h-.158L19.83.583l.237.026c.026 0 .026 0 .053-.026.026 0 .026-.026.026-.053l.026-.451c0-.026 0-.026-.026-.053C20.093 0 20.067 0 20.067 0zM22.484.504 21.59.318c-.026 0-.079.027-.079.053l-.105.424v.053c0 .027.026.026.053.026l.21.026-.447 2.2-.21-.053h-.053c-.027 0-.026.026-.026.053l-.079.424c0 .026.026.08.053.08l.92.186c.026 0 .053-.026.053-.053l.105-.398v-.053c0-.027-.026-.026-.053-.026l-.263-.053.473-2.2.263.053c.026 0 .026 0 .053-.026.026 0 .026-.026.026-.053l.053-.424c0-.026-.026-.053-.053-.053zM26.008 2.174c.026 0 .079 0 .079-.053l.131-.398c0-.026 0-.08-.026-.08l-.868-.318c-.026 0-.079 0-.079.026l-.184.424v.053c0 .027.026.026.026.026l.21.08-.421 1.087c-.026.053-.053.133-.079.212s-.079.159-.105.265c-.053.08-.079.159-.131.239s-.105.133-.158.186a.42.42 0 0 1-.184.106c-.053.027-.131 0-.21-.027-.053-.026-.105-.053-.131-.106s-.053-.106-.053-.159v-.212a.49.49 0 0 1 .053-.212c.026-.08.053-.133.053-.212.026-.08.053-.133.079-.186.079-.239.184-.451.263-.663s.184-.398.263-.61l.21.053h.053c.027 0 .026-.026.026-.026l.105-.398c0-.026 0-.08-.053-.08l-.841-.318c-.026 0-.079 0-.079.026l-.237.424v.053c0 .027.026.026.026.026l.21.08-.237.557c-.079.212-.184.424-.263.636-.026.08-.079.186-.105.318-.026.106-.053.239-.079.345-.026.133-.026.239-.026.345 0 .133.026.239.053.345s.079.212.158.292c.079.08.184.159.316.212s.237.08.342.08h.079c.131-.027.237-.053.368-.106.105-.053.21-.133.289-.239l.237-.318c.079-.106.131-.239.184-.371s.105-.239.158-.345l.394-1.114.184.053zM30.137 4.136l-.841-.557c-.026-.026-.053-.026-.079 0l-1.525 1.405.815-1.829c.026-.026 0-.053-.026-.08l-.92-.636c-.026-.026-.079 0-.079.026l-.237.345c-.026.026-.026.08.026.08l.263.212-1.262 1.829-.237-.159c-.026 0-.026-.027-.053 0-.026 0-.026.027-.053.027l-.237.345c-.026.027 0 .08.026.08l.868.61c.026 0 .026.027.053 0 .026 0 .026-.027.053-.027l.237-.371c.026-.027 0-.08-.026-.08l-.158-.106.815-1.193-.71 1.644c0 .027 0 .053.026.08l.394.239c.026.027.053 0 .079 0l1.394-1.273-.894 1.299-.184-.133c-.026-.027-.079 0-.079.027l-.263.371c0 .027-.026.027 0 .053 0 .027.026.027.026.053l.789.53h.026c.026 0 .026-.027.053-.027l.237-.371c.026-.027 0-.08-.026-.08l-.131-.106 1.315-1.909.184.133c.026 0 .026.027.053 0 .026 0 .026 0 .053-.027l.263-.371c0-.027.026-.027 0-.053 0 .027-.026.027-.026 0zM11.676 25.929a.906.906 0 0 0-.421-.212c-.132-.026-.263-.026-.394 0s-.263.08-.368.159c-.132.08-.237.159-.342.265s-.21.186-.316.318c-.105.106-.184.212-.263.318-.053.08-.131.186-.184.265-.053.106-.131.212-.184.318s-.105.239-.131.345c-.026.133-.053.239-.053.345a.817.817 0 0 0 .316.637c.026.026.079.053.105.08s.053.026.079.053c0 .106-.026.186-.026.292s0 .239.026.345c0 .026.026.053.053.053l.473-.08c.026 0 .026-.026.053-.026v-.053a.509.509 0 0 1-.053-.212c0-.053-.026-.133-.026-.186a.48.48 0 0 0 .21-.053c.105-.026.184-.08.263-.133s.158-.106.263-.186c.079-.08.158-.133.237-.212s.131-.159.21-.239c.053-.08.132-.159.184-.212.053-.08.132-.186.184-.265.079-.106.132-.212.184-.318s.105-.239.131-.345c.026-.133.053-.239.053-.371s-.026-.239-.079-.345a.416.416 0 0 0-.184-.345zm-2.025 2.227c0-.026 0 0 0 0-.026-.08-.053-.106-.053-.159v-.133c0 .053.026.08.026.133.026.053.026.106.026.159zm.5-.371a1.316 1.316 0 0 0-.105-.292c-.053-.08-.079-.159-.158-.212 0-.026.026-.026.026-.053l.079-.08c.053-.053.105-.133.158-.212s.132-.159.21-.239.158-.159.237-.212a.61.61 0 0 1 .237-.159c.158-.08.289-.08.447.026.053.053.079.08.105.159.026.053.026.133 0 .212s-.026.159-.079.239c-.026.08-.079.159-.131.239s-.105.159-.132.212c-.053.08-.079.133-.131.159-.053.053-.105.133-.184.212s-.132.159-.21.239c-.079.08-.158.133-.237.186-.053.026-.079.053-.132.08.026-.08.026-.133.026-.186 0-.106 0-.212-.026-.318zM15.173 27.891l-.841-.371c-.026-.026-.079 0-.079.026l-.21.398v.053c0 .026.026.026.026.026l.21.08-.473 1.06c-.026.053-.053.133-.105.212-.026.08-.079.159-.131.239l-.158.239a.616.616 0 0 1-.184.186.286.286 0 0 1-.184.08c-.053.026-.131 0-.21-.026-.053-.027-.105-.053-.131-.106s-.053-.106-.053-.159v-.212c0-.079.026-.159.053-.212.026-.08.053-.133.079-.212s.053-.133.079-.186l.316-.636c.105-.186.184-.398.289-.583l.21.08h.053c.027 0 .026-.026.026-.026l.131-.398c0-.026 0-.08-.026-.08l-.842-.371c-.026-.026-.079 0-.079.026l-.21.398v.053c0 .027.026.026.026.026l.21.08c-.079.186-.184.371-.263.557-.105.212-.21.424-.289.636-.053.08-.079.186-.131.292s-.079.239-.105.345c-.026.133-.053.239-.053.345 0 .133 0 .239.026.345s.079.212.158.292c.079.08.184.159.289.212.132.053.263.08.368.08h.026c.131 0 .263-.053.368-.106s.21-.133.316-.239c.079-.106.184-.212.237-.318.079-.106.131-.239.21-.345.053-.133.105-.239.158-.345l.473-1.087.184.08c.026 0 .079 0 .079-.053l.132-.398c.053.08.053.026.026.026zM17.435 31.417l-.237-.053-.053-2.492.158.026c.026 0 .053-.026.079-.053l.079-.371v-.053c0-.027-.026-.026-.053-.026l-1.157-.186h-.053c-.027 0-.026.026-.026.053l-.053.398c0 .026.026.08.053.08l.158.026-.894 2.227-.237-.053h-.053c-.027 0-.026.026-.026.053l-.053.451c0 .027.026.08.053.08l.92.186c.026 0 .079-.026.079-.053l.105-.398v-.053c0-.027-.026-.026-.053-.026l-.184-.053.158-.451.5.08v.557l-.21-.053h-.053c-.027 0-.026.026-.026.053l-.053.451c0 .027.026.08.053.08l.92.186h.026c.026 0 .053-.026.053-.053l.105-.424c.026-.08.026-.106-.026-.133zm-.736-2.201v.981l-.316-.053.316-.928zM20.591 30.86h-.394c-.026 0-.026 0-.053.026 0 0-.026.026-.026.053v.451h-.631l-.053-2.253.263-.026c.026 0 .053-.026.053-.08v-.424c0-.026-.026-.053-.079-.053l-.999.026c-.026 0-.053.026-.053.08v.424c0 .026 0 .026.026.053 0 0 .026.026.053.026h.21l.053 2.253h-.21c-.026 0-.026 0-.053.026 0 .027-.026.027-.026.053l.026.451c0 .026.026.053.053.053l1.814-.026c.026 0 .053-.026.053-.08v-.954c.026-.026 0-.08-.026-.08zM22.931 30.94c-.026 0-.026-.026-.053 0l-.237.053-.447-2.201.21-.053c.026 0 .026-.026.026-.026v-.053l-.131-.398c0-.026-.053-.053-.079-.053l-.894.186c-.026 0-.053.053-.053.08l.079.451c0 .026.026.026.026.053h.053l.21-.053.473 2.201-.21.053c-.026 0-.026.026-.053.026v.053l.105.424c0 .026.026.053.053.053h.026l.92-.239c.026 0 .053-.053.053-.08l-.079-.424c.026-.026 0-.053 0-.053zM25.587 29.985h-.053l-.237.106-.868-2.147.237-.106.237.504c0 .026.026.026.053.026h.053l.316-.186c.026-.026.053-.053.026-.08l-.447-.901c-.026-.026-.053-.053-.079-.026l-1.709.795c-.026.026-.053.053-.026.08l.368.928c0 .026.026.026.026.026h.053l.342-.159c.026 0 .026-.026.026-.026v-.053l-.21-.477.263-.133.894 2.094-.184.08c-.026 0-.026.026-.026.026v.053l.184.398c0 .026.026.026.053.026h.026l.868-.398c.026-.026.053-.053.026-.08l-.131-.398c-.053.026-.079.026-.079.026zM28.664 28.633l-.21-.345c0-.027-.026-.027-.053-.027h-.053l-.21.159-.394-.557-.394-1.67.184-.159c.026-.026.026-.053 0-.106l-.289-.345c-.026-.026-.053-.026-.079 0l-.763.557c-.026.026-.026.053-.026.08l.237.371c0 .026.026.026.053.026h.053l.158-.106.289 1.007-.815-.636.131-.133c.026 0 .026-.026.026-.053s0-.026-.026-.053l-.263-.318c-.026-.026-.053-.026-.079 0l-.763.557c-.026.026-.026.053-.026.08l.237.371c0 .026.026.026.053.026h.053l.184-.159 1.394.928.394.557-.158.133c-.026 0-.026.026-.026.053v.053l.263.345c0 .026.026.026.053.026h.053l.763-.583c.079-.026.079-.053.053-.08z" style="fill:var(--color3, #605656)"/>
      <path fill="#fff" d="M4.155 19.99c.053 0 .105 0 .158.026v-6.204c.105-.159.237-.451.237-.769 0-.504-.316-.901-.316-.901s-.316.398-.316.901c0 .318.131.61.237.769v.53a1.628 1.628 0 0 0-.289-.557c-.342-.371-.841-.451-.841-.451s.026.504.368.875c.263.292.631.398.763.424v.663c-.053-.159-.131-.398-.289-.557-.342-.371-.841-.451-.841-.451s.026.504.368.875c.263.292.631.398.763.424v.663c-.053-.159-.131-.398-.289-.557-.342-.371-.841-.451-.841-.451s.026.504.368.875c.263.292.631.398.763.424v.663c-.053-.159-.131-.398-.289-.557-.342-.371-.841-.451-.841-.451s.026.504.368.875c.263.292.631.398.763.424v.663c-.053-.159-.131-.398-.289-.557-.342-.371-.841-.451-.841-.451s.026.504.368.875c.263.292.631.398.763.424v.636c-.053-.159-.131-.398-.289-.557-.342-.371-.841-.451-.841-.451s.026.504.368.875c.263.292.631.398.763.424v.61z" style="fill:var(--color2, #fff)"/>
      <path fill="#fff" d="M5.154 18.983c.342-.371.368-.875.368-.875s-.5.08-.841.451c-.342.371-.368.875-.368.875s.526-.106.841-.451zM5.154 18.028c.342-.371.368-.875.368-.875s-.5.08-.841.451c-.342.371-.368.875-.368.875s.526-.106.841-.451zM5.154 17.074c.342-.371.368-.875.368-.875s-.5.08-.841.451c-.342.371-.368.875-.368.875s.526-.106.841-.451zM5.154 16.119c.342-.371.368-.875.368-.875s-.5.08-.841.451c-.342.371-.368.875-.368.875s.526-.08.841-.451zM5.154 15.165c.342-.371.368-.875.368-.875s-.5.08-.841.451c-.342.371-.368.875-.368.875s.526-.08.841-.451zM5.154 14.21c.342-.371.368-.875.368-.875s-.5.08-.841.451c-.342.371-.368.875-.368.875s.526-.08.841-.451zM32.661 19.99c.053 0 .105 0 .158.026v-6.204c.105-.159.237-.451.237-.769 0-.504-.316-.901-.316-.901s-.316.398-.316.901c0 .318.131.61.237.769v.53a1.646 1.646 0 0 0-.289-.557c-.342-.371-.841-.451-.841-.451s.026.504.368.875c.263.292.631.398.763.424v.663c-.053-.159-.132-.398-.289-.557-.342-.371-.841-.451-.841-.451s.026.504.368.875c.263.292.631.398.763.424v.663c-.053-.159-.132-.398-.289-.557-.342-.371-.841-.451-.841-.451s.026.504.368.875c.263.292.631.398.763.424v.663c-.053-.159-.132-.398-.289-.557-.342-.371-.841-.451-.841-.451s.026.504.368.875c.263.292.631.398.763.424v.663c-.053-.159-.132-.398-.289-.557-.342-.371-.841-.451-.841-.451s.026.504.368.875c.263.292.631.398.763.424v.636c-.053-.159-.132-.398-.289-.557-.342-.371-.841-.451-.841-.451s.026.504.368.875c.263.292.631.398.763.424v.61z" style="fill:var(--color2, #fff)"/>
      <path fill="#fff" d="M33.66 18.983c.342-.371.368-.875.368-.875s-.5.08-.842.451c-.342.371-.368.875-.368.875s.526-.106.842-.451zM33.66 18.028c.342-.371.368-.875.368-.875s-.5.08-.842.451c-.342.371-.368.875-.368.875s.526-.106.842-.451zM33.66 17.074c.342-.371.368-.875.368-.875s-.5.08-.842.451c-.342.371-.368.875-.368.875s.526-.106.842-.451zM33.66 16.119c.342-.371.368-.875.368-.875s-.5.08-.842.451c-.342.371-.368.875-.368.875s.526-.08.842-.451zM33.66 15.165c.342-.371.368-.875.368-.875s-.5.08-.842.451c-.342.371-.368.875-.368.875s.526-.08.842-.451zM33.66 14.21c.342-.371.368-.875.368-.875s-.5.08-.842.451c-.342.371-.368.875-.368.875s.526-.08.842-.451z" style="fill:var(--color2, #fff)"/>
    </symbol>
    <symbol id="loupe-1" viewBox="0 0 32 32">
      <path d="M14.092 0C6.322 0 0 6.322 0 14.092s6.322 14.092 14.092 14.092c7.771 0 14.092-6.321 14.092-14.092S21.863 0 14.092 0zm0 25.583c-6.336 0-11.491-5.155-11.491-11.491S7.756 2.601 14.092 2.601c6.336 0 11.491 5.155 11.491 11.491s-5.155 11.491-11.491 11.491z"/>
      <path d="m31.619 29.779-7.458-7.458a1.3 1.3 0 1 0-1.839 1.839l7.458 7.458a1.297 1.297 0 0 0 1.84 0 1.3 1.3 0 0 0 0-1.839z"/>
    </symbol>
    <symbol id="shopping-cart-1" viewBox="0 0 32 32">
      <path d="M10.31 20.688h17.002a.938.938 0 0 0 .901-.68l3.75-13.125a.937.937 0 0 0-.901-1.195H8.147l-.67-3.016a.937.937 0 0 0-.915-.734H.937a.938.938 0 0 0 0 1.876H5.81l3.385 15.232a2.816 2.816 0 0 0-1.695 2.58 2.816 2.816 0 0 0 2.813 2.813h17a.938.938 0 0 0 0-1.876h-17a.937.937 0 0 1-.003-1.875zM29.82 7.563l-3.214 11.25H11.065l-2.5-11.25H29.82z"/>
      <path d="M9.375 27.25c0 1.551 1.262 2.812 2.813 2.812S15 28.8 15 27.25c0-1.551-1.262-2.813-2.812-2.813s-2.813 1.262-2.813 2.813zm2.813-.937c.517 0 .938.421.938.938s-.421.938-.938.938c-.517 0-.938-.421-.938-.938s.421-.938.938-.938zM22.625 27.25c0 1.551 1.262 2.812 2.813 2.812S28.25 28.8 28.25 27.25c0-1.551-1.262-2.813-2.812-2.813s-2.813 1.262-2.813 2.813zm2.813-.937c.517 0 .938.421.938.938s-.421.938-.938.938c-.517 0-.938-.421-.938-.938s.421-.938.938-.938z"/>
    </symbol>
    <symbol id="user-1" viewBox="0 0 32 32">
      <path stroke-width=".427" d="M19.357 13.313c2.019.651 3.845 1.893 5.321 3.647 2.285 2.716 3.536 6.461 3.536 10.54a.709.709 0 0 1-.347.611c-.221.132-5.246 3.102-11.867 3.102-6.114 0-11.607-2.959-11.842-3.087l15.199-14.813zm0 0a6.709 6.709 0 0 0 3.191-7.292 6.715 6.715 0 0 0-13.098 0 6.708 6.708 0 0 0 3.191 7.292h6.714zM10.713 7.5a5.286 5.286 0 1 1 10.172 2.024 5.284 5.284 0 0 1-8.621 1.714 5.287 5.287 0 0 1-1.55-3.737zM8.414 17.878C10.407 15.51 13.1 14.213 16 14.213s5.593 1.297 7.586 3.665c1.982 2.356 3.114 5.608 3.196 9.203-1.233.652-5.53 2.705-10.782 2.705-4.858 0-9.453-2.068-10.781-2.721.085-3.589 1.217-6.835 3.196-9.187z"/>
    </symbol>
        <symbol id="heart1" viewBox="0 0 32 32">
      <path d="M23.467.984a8.67 8.67 0 0 0-7.466 4.332A8.61 8.61 0 0 0-.082 9.601c0 4.608 2.758 9.96 6.135 14.154 1.69 2.099 3.538 3.912 5.28 5.201 1.739 1.287 3.385 2.062 4.668 2.062s2.93-.775 4.668-2.062c1.742-1.289 3.59-3.103 5.28-5.201 3.377-4.194 6.135-9.546 6.135-14.154A8.627 8.627 0 0 0 23.467.984zM1.15 9.6a7.38 7.38 0 0 1 14.274-2.633.615.615 0 0 0 1.152 0A7.38 7.38 0 0 1 30.85 9.6c0 4.359-2.718 9.407-5.948 13.372-1.613 1.981-3.35 3.686-4.932 4.896-.791.605-1.541 1.085-2.217 1.413-.677.329-1.272.502-1.754.502s-1.077-.174-1.754-.502c-.675-.328-1.426-.808-2.217-1.413-1.581-1.21-3.319-2.915-4.932-4.896C3.867 19.007 1.148 13.959 1.148 9.6z"/>
      <path d="M11.65 12.267a.617.617 0 1 0 1.234 0 2.75 2.75 0 1 0-5.5 0 .617.617 0 1 0 1.234 0 1.517 1.517 0 1 1 3.034 0zM20.637 15.96l-.004.003-.012.009-.044.036a4.827 4.827 0 0 0-.624.619c-.341.407-.668.945-.668 1.506 0 .556.327 1.095.669 1.503a5.111 5.111 0 0 0 .684.67h.001a.616.616 0 1 1-.74.986l-.001-.001a5.62 5.62 0 0 1-1.438-1.677 4.049 4.049 0 0 1-2.457.735 4.053 4.053 0 0 1-2.456-.736 5.618 5.618 0 0 1-1.44 1.678l-.001.001a.617.617 0 0 1-.74-.986l.001-.001.015-.012.044-.036a4.827 4.827 0 0 0 .624-.619c.341-.407.668-.945.668-1.506 0-.557-.327-1.095-.669-1.503a5.111 5.111 0 0 0-.684-.67h-.001a.616.616 0 0 1-.123-.863l9.397.863zm0 0a.616.616 0 1 0-.74-.987l.74.987zM21.867 9.517a2.754 2.754 0 0 0-2.75 2.75.617.617 0 1 0 1.234 0 1.517 1.517 0 1 1 3.034 0 .617.617 0 1 0 1.234 0 2.754 2.754 0 0 0-2.75-2.75z"/>
    </symbol>
    <symbol id="support1" viewBox="0 0 32 32">
      <path d="M15.944 4.066a.629.629 0 0 0 .629-.629V.63a.629.629 0 1 0-1.258 0v2.807c0 .348.282.629.629.629zM31.33 21.624l-1.112-1.109a2.088 2.088 0 0 0-1.485-.613c-.359 0-.704.089-1.01.257l-2.095-2.093.102-.102c.85-.852.85-2.236 0-3.085a2.161 2.161 0 0 0-1.096-.592 2.192 2.192 0 0 0-.551-2.154 2.17 2.17 0 0 0-1.096-.593 2.192 2.192 0 0 0-.552-2.155 2.169 2.169 0 0 0-1.095-.591 2.19 2.19 0 0 0-.551-2.157 2.186 2.186 0 0 0-1.777-.623l-4.152-.786c-.633-.12-1.424-.2-1.923.256a1.003 1.003 0 0 0-.095.099 2.19 2.19 0 0 0-2.297.505 2.192 2.192 0 0 0-.551 2.155 2.157 2.157 0 0 0-1.094.591c-.412.41-.639.958-.64 1.541 0 .211.03.417.087.614a2.153 2.153 0 0 0-1.095.591c-.412.412-.639.96-.639 1.544 0 .447.134.874.381 1.234a2.185 2.185 0 0 0-.837 3.609l.102.101-2.096 2.092a2.104 2.104 0 0 0-2.381.413L.669 21.682c-.396.395-.614.923-.614 1.485s.218 1.089.614 1.485l1.389 1.387a.63.63 0 0 0 .889-.89l-1.389-1.387a.83.83 0 0 1-.244-.594c0-.226.087-.437.244-.594l1.113-1.11a.843.843 0 0 1 1.027-.126.635.635 0 0 0 .26.223l6.381 6.371a.637.637 0 0 0 .303.307c.135.153.21.347.21.555a.834.834 0 0 1-.244.594l-1.112 1.11a.845.845 0 0 1-1.19.001L6.917 29.11a.629.629 0 1 0-.89.89l1.39 1.39c.409.407.946.611 1.484.611s1.075-.204 1.485-.612l1.112-1.111c.396-.395.614-.923.614-1.485 0-.401-.112-.784-.319-1.115l2.359-2.356.008-.008c.27-.279 1.022-.227 1.749-.176.517.036 1.093.076 1.656.011l2.583 2.58a2.092 2.092 0 0 0-.257 1.008c0 .562.218 1.089.614 1.484l1.112 1.111c.395.395.923.613 1.484.613s1.089-.218 1.484-.613l6.746-6.738c.396-.395.614-.923.614-1.485s-.218-1.089-.614-1.485zM14.626 6.465l2.73.517-1.634 1.634c-.253-.121-.599-.348-.979-.712-.52-.498-.893-1.072-.926-1.431v-.001c0-.001 0 0 0 0a.836.836 0 0 1-.003-.062c.082-.02.301-.042.813.055zm-3.191.513a.928.928 0 0 1 1.175-.111c.204.856.935 1.632 1.263 1.946.244.233 1.025.932 1.813 1.124a.916.916 0 0 1 .165.528.92.92 0 0 1-.923.922.912.912 0 0 1-.654-.27l-2.839-2.833c-.173-.173-.268-.405-.268-.652s.095-.479.268-.652zM9.79 9.725c.173-.173.405-.269.653-.269s.481.096.655.27l2.286 2.281c.36.36.36.947.001 1.306-.174.173-.407.269-.656.269s-.482-.095-.655-.268L10.34 11.58l-.008-.008-.543-.542c-.174-.174-.27-.406-.27-.654s.096-.478.27-.652zm-1.648 2.746a.919.919 0 0 1 .654-.268c.247 0 .477.094.649.264l1.739 1.739c.173.173.269.404.269.652s-.096.479-.27.652c-.173.173-.405.268-.653.268s-.481-.096-.655-.268l-.631-.63-1.103-1.102c-.174-.174-.27-.406-.27-.653s.096-.479.27-.653zM7.046 15.77c.174-.174.407-.27.655-.27s.481.096.655.269l.631.631c.174.173.269.404.269.652s-.096.479-.27.653c-.173.173-.405.269-.654.269s-.48-.095-.655-.27l-.079-.079-.003-.003-.004-.003-.545-.543a.924.924 0 0 1-.001-1.305zm12.827 7.153a.63.63 0 0 0-.89-.001l-.56.559c-.532.532-1.496.465-2.429.4-1.013-.07-2.06-.143-2.737.553l-2.318 2.316-5.798-5.789 2.052-2.048c.339.208.73.319 1.14.319.585 0 1.133-.227 1.543-.637.412-.411.64-.959.64-1.544v-.016h.016c.584 0 1.132-.226 1.542-.636.412-.411.64-.959.64-1.544v-.016h.017a2.175 2.175 0 0 0 2.182-2.196h.017c.585 0 1.133-.227 1.544-.638s.638-.959.638-1.543c0-.409-.111-.799-.318-1.138l1.798-1.798a.93.93 0 0 1 1.31-.002c.36.361.36.947.001 1.306l-.548.545-.006.005-.631.63a.63.63 0 0 0 .889.891l.55-.549.083-.083a.926.926 0 0 1 1.306.003c.174.173.269.404.269.652s-.096.479-.27.653l-.551.552-.631.628a.63.63 0 0 0 .888.892l.634-.631c.173-.173.405-.269.654-.269a.92.92 0 0 1 .654 1.575l-1.098 1.099a.629.629 0 1 0 .89.89l.538-.538.009-.009c.173-.173.405-.269.654-.269s.48.096.654.27a.924.924 0 0 1 0 1.305l-.547.547-.001.001-.001.001-.869.867a.63.63 0 0 0 .889.891l.425-.424 2.036 2.034-5.797 5.79-2.077-2.075c.145-.093.283-.203.413-.333l.56-.559a.63.63 0 0 0 .001-.89zm10.568.78-6.746 6.738c-.158.158-.369.244-.595.244s-.437-.087-.595-.245l-1.112-1.111a.83.83 0 0 1-.244-.593c0-.225.087-.436.244-.593l6.746-6.738c.158-.158.369-.244.595-.244s.437.087.595.245l1.112 1.109c.158.157.244.368.244.594s-.087.437-.245.594zM7.586 3.536a.627.627 0 0 0 .891-.001.629.629 0 0 0-.001-.89L6.182.356a.629.629 0 1 0-.889.891l2.294 2.289zM23.858 3.719a.627.627 0 0 0 .445-.184l2.292-2.289a.629.629 0 1 0-.89-.891l-2.292 2.289a.63.63 0 0 0 .444 1.075z"/>
      <path d="M3.926 27.075a.629.629 0 0 0 .008.89l.002.002a.626.626 0 0 0 .889-.009.629.629 0 1 0-.898-.883zM21.413 22.017a.63.63 0 1 0-.282-1.192l-.003.002a.63.63 0 0 0 .286 1.19z"/>
    </symbol>
    <symbol id="telescope1" viewBox="0 0 32 32">
      <path d="M30.269 4.869a4.15 4.15 0 0 0-2.85-2.027L27.1 1.523a.44.44 0 0 0-.53-.322l-2.45.593a.441.441 0 0 0-.322.528l.234.964L7.775 7.222c-.112.028-.209.099-.27.198s-.079.218-.052.33l.157.647-2.952.715a.441.441 0 0 0-.322.528l.231.955-3.044.737a.44.44 0 0 0-.323.529l.563 2.322a.44.44 0 0 0 .528.323l3.044-.737.231.952a.44.44 0 0 0 .425.335.398.398 0 0 0 .103-.013l2.952-.714.157.647a.44.44 0 0 0 .425.335.398.398 0 0 0 .103-.013l4.373-1.059c.053.251.154.489.3.7L7.439 29.102a1.188 1.188 0 0 0 1.065 1.711 1.197 1.197 0 0 0 1.065-.664l5.245-10.667v10.144a1.188 1.188 0 1 0 2.376 0V19.482l5.245 10.667a1.198 1.198 0 0 0 1.067.665 1.19 1.19 0 0 0 1.184-1.263 1.207 1.207 0 0 0-.119-.448l-6.965-14.165a1.916 1.916 0 0 0 .268-1.61l8.12-1.969.234.965a.441.441 0 0 0 .528.322l2.45-.593a.44.44 0 0 0 .323-.529l-.319-1.319a4.161 4.161 0 0 0 1.067-5.337zM2.511 13.552l-.357-1.472 2.619-.634.356 1.472-2.619.634zm3.803.538-.228-.942c0-.003 0-.007-.002-.01s-.003-.007-.003-.01l-.558-2.302v-.009l-.003-.009-.229-.946 2.527-.611 1.025 4.229-2.529.611zm10.576-.826a1.058 1.058 0 0 1-.136 1.327l-.002.003a1.06 1.06 0 0 1-1.5 0l-.002-.003a1.055 1.055 0 0 1-.309-.806 1.067 1.067 0 0 1 .392-.769 1.054 1.054 0 0 1 .834-.223 1.058 1.058 0 0 1 .724.47v.001zM8.784 29.762a.31.31 0 0 1-.3.173.312.312 0 0 1-.291-.33.3.3 0 0 1 .032-.117l6.59-13.403v1.414l-6.03 12.264zm7.218.175a.312.312 0 0 1-.313-.313V15.753c.207.037.418.037.625 0v13.871a.312.312 0 0 1-.313.313zm7.792-.212a.303.303 0 0 1-.161.181c-.074.034-.159.037-.236.011s-.141-.082-.178-.155l-6.03-12.263v-1.414l6.59 13.404c.018.036.029.076.031.117s-.003.081-.016.12zm-7.792-17.819a1.936 1.936 0 0 0-1.866 1.425l-4.185 1.013-1.386-5.725v-.004l-.156-.645L24.24 4.136l1.543 6.372-8.356 2.026a1.93 1.93 0 0 0-1.424-.628zm10.967-.213-1.98-8.175c0-.005 0-.009-.002-.014l-.004-.013-.231-.95 1.6-.388 2.217 9.152-1.6.387zm.682-7.889a3.28 3.28 0 0 1 2.196 2.351 3.266 3.266 0 0 1-.877 3.096l-1.319-5.447z"/>
      <path d="m19.259 5.985-3.36.815a.447.447 0 0 0-.28.195.425.425 0 0 0-.055.337.449.449 0 0 0 .203.274.434.434 0 0 0 .337.045l3.361-.814a.443.443 0 0 0 .279-.195.438.438 0 0 0-.486-.655zM22.513 5.647a.437.437 0 0 0-.529-.323l-1 .242a.447.447 0 0 0-.28.195.425.425 0 0 0 .019.494.433.433 0 0 0 .467.161l.999-.242a.438.438 0 0 0 .323-.527z"/>
    </symbol>
    <symbol id="wholesale1" viewBox="0 0 32 32">
      <path d="M31.065 8.059 17.316.342a2.667 2.667 0 0 0-2.613 0L.954 8.059a1.6 1.6 0 1 0 1.568 2.79L16.01 3.281l13.488 7.568a1.599 1.599 0 0 0 2.376-1.203 1.598 1.598 0 0 0-.809-1.587zm-.32 1.659a.533.533 0 0 1-.725.203L16.543 2.348a1.065 1.065 0 0 0-1.067 0L1.999 9.921a.537.537 0 1 1-.533-.933l13.76-7.717a1.598 1.598 0 0 1 1.568 0l13.749 7.717a.53.53 0 0 1 .203.731zM3.21 11.984a.533.533 0 0 0-.533.533v18.949a.533.533 0 1 0 1.066 0V12.517a.533.533 0 0 0-.533-.533zM28.809 11.984a.533.533 0 0 0-.533.533v18.949a.533.533 0 1 0 1.066 0V12.517a.533.533 0 0 0-.533-.533zM26.676 11.201H5.343a.533.533 0 0 0-.533.533v19.733a.533.533 0 0 0 1.066 0V14.401h20.266v17.066a.533.533 0 0 0 1.066 0V11.734a.533.533 0 0 0-.533-.533zM5.877 13.334v-1.067h20.266v1.067H5.877z"/>
      <path d="M20.276 8.001a.533.533 0 1 0 0-1.066h-8.533a.533.533 0 0 0-.533.533v2.133c0 .295.239.533.533.533h8.533a.533.533 0 1 0 0-1.066h-8V8.001h8zM24.543 28.8h-.533v-5.867a.533.533 0 0 0-.533-.533h-1.6v-5.867a.533.533 0 0 0-.533-.533h-7.467a.533.533 0 0 0-.533.533V19.2h-2.667a.533.533 0 0 0-.533.533V22.4h-1.6a.533.533 0 0 0-.533.533V28.8h-.533a.533.533 0 0 0-.533.533v2.133a.533.533 0 0 0 1.066 0v-1.6h1.6v1.6a.533.533 0 0 0 1.066 0v-1.6h1.067v1.6a.533.533 0 0 0 1.066 0v-1.6h1.6v1.6a.533.533 0 0 0 1.066 0v-1.6h1.067v1.6a.533.533 0 0 0 1.066 0v-1.6h1.6v1.6a.533.533 0 0 0 1.066 0v-1.6h1.067v1.6a.533.533 0 0 0 1.066 0v-1.6h1.6v1.6a.533.533 0 0 0 1.066 0v-2.133a.533.533 0 0 0-.533-.533zm-5.333-5.333h1.067v1.067H19.21v-1.067zm-1.067-6.4v1.067h-1.067v-1.067h1.067zm-3.733 0h1.6v1.6c0 .295.239.533.533.533h2.133a.533.533 0 0 0 .533-.533v-1.6h1.6V22.4h-6.4v-5.333zm-2.667 6.4h1.067v1.067h-1.067v-1.067zm-.533-3.2h2.133V22.4H11.21v-2.133zM9.076 28.8v-5.333h1.6v1.6c0 .295.239.533.533.533h2.133a.533.533 0 0 0 .533-.533v-1.6h1.6V28.8h-6.4zm7.467 0v-5.333h1.6v1.6c0 .295.239.533.533.533h2.133a.533.533 0 0 0 .533-.533v-1.6h1.6V28.8h-6.4z"/>
    </symbol>
    <symbol id="winner1" viewBox="0 0 32 32">
      <path d="M18.939 3.849a.625.625 0 0 0-.293 1.215A11.212 11.212 0 0 1 27.25 16c0 6.203-5.047 11.25-11.25 11.25S4.75 22.203 4.75 16c0-5.218 3.538-9.715 8.603-10.936a.625.625 0 1 0-.293-1.215 12.559 12.559 0 0 0-6.837 4.362A12.362 12.362 0 0 0 3.5 16c0 6.892 5.607 12.5 12.5 12.5S28.5 22.893 28.5 16c0-2.863-.942-5.556-2.724-7.789a12.559 12.559 0 0 0-6.837-4.362z"/>
      <path d="m31.623 14.497-.731-1.364.122-1.687a3.19 3.19 0 0 0-1.155-2.824l-1.214-.994-.477-1.438a3.212 3.212 0 0 0-2.186-2.311l-1.498-.453L23.337 2.1A3.195 3.195 0 0 0 20.588.989l-1.555.155-1.529-.767a3.187 3.187 0 0 0-3.007 0l-1.364.731-1.686-.122a3.19 3.19 0 0 0-2.824 1.155l-.994 1.214-1.438.477A3.212 3.212 0 0 0 3.88 6.018l-.453 1.498-1.326 1.147a3.201 3.201 0 0 0-1.112 2.749l.155 1.555-.767 1.529a3.187 3.187 0 0 0 0 3.007l.731 1.364-.122 1.687a3.19 3.19 0 0 0 1.155 2.824l1.214.994.477 1.438a3.212 3.212 0 0 0 2.186 2.311l1.498.453L8.663 29.9a3.199 3.199 0 0 0 2.749 1.112l1.555-.155 1.528.767a3.194 3.194 0 0 0 3.007 0l1.364-.731 1.686.122a3.19 3.19 0 0 0 2.824-1.155l.994-1.214 1.438-.477a3.213 3.213 0 0 0 2.311-2.186l.453-1.498 1.326-1.147a3.201 3.201 0 0 0 1.112-2.749l-.155-1.555.767-1.529a3.187 3.187 0 0 0 0-3.007zm-1.106 2.424-.008.015-.852 1.698a.622.622 0 0 0-.063.342l.173 1.734a1.952 1.952 0 0 1-.681 1.677l-1.467 1.269a.626.626 0 0 0-.189.292l-.505 1.672a1.958 1.958 0 0 1-1.427 1.337.494.494 0 0 0-.055.015l-1.636.543a.63.63 0 0 0-.287.197l-1.109 1.354a1.943 1.943 0 0 1-1.755.701l-1.879-.136a.627.627 0 0 0-.34.072l-1.523.816a1.94 1.94 0 0 1-1.835-.004l-.015-.008-1.698-.852a.62.62 0 0 0-.342-.063l-1.734.173a1.95 1.95 0 0 1-1.677-.681l-1.269-1.467a.618.618 0 0 0-.292-.189l-1.672-.505a1.956 1.956 0 0 1-1.337-1.427c-.004-.019-.01-.037-.016-.055l-.543-1.636a.63.63 0 0 0-.197-.287l-1.354-1.109a1.943 1.943 0 0 1-.701-1.755l.136-1.879a.627.627 0 0 0-.072-.34l-.816-1.523a1.94 1.94 0 0 1 .004-1.835l.008-.015.852-1.698a.622.622 0 0 0 .063-.342l-.173-1.734a1.952 1.952 0 0 1 .681-1.677l1.467-1.27a.618.618 0 0 0 .189-.292l.505-1.672A1.956 1.956 0 0 1 6.503 5.04c.019-.004.037-.01.055-.016l1.636-.543a.63.63 0 0 0 .287-.197L9.59 2.93a1.946 1.946 0 0 1 1.755-.701l1.879.136a.636.636 0 0 0 .34-.072l1.523-.816a1.94 1.94 0 0 1 1.835.004l.015.008 1.698.852a.622.622 0 0 0 .342.063l1.734-.173a1.95 1.95 0 0 1 1.677.681l1.269 1.467c.077.09.179.155.292.189l1.672.505A1.958 1.958 0 0 1 26.958 6.5c.004.019.01.037.016.055l.543 1.636a.63.63 0 0 0 .197.287l1.354 1.109a1.943 1.943 0 0 1 .701 1.755l-.136 1.879a.627.627 0 0 0 .072.34l.816 1.523a1.94 1.94 0 0 1-.004 1.835z"/>
      <path d="M13.288 12.595a.625.625 0 0 0-.564-.358H9.422a.625.625 0 0 0-.625.625v9.46c0 .345.28.625.625.625h3.302a.626.626 0 0 0 .576-.382c.476.067.967.202 1.478.344.768.213 1.563.433 2.388.433h3.608c1.115 0 2.019-.591 2.418-1.582.194-.483.228-.983.115-1.403a2.26 2.26 0 0 0 .515-.69c.269-.549.323-1.167.17-1.688.284-.274.496-.637.607-1.064a2.23 2.23 0 0 0 .01-1.135 1.882 1.882 0 0 0 .359-2.994 1.954 1.954 0 0 0-1.356-.534h-5.086c-.386-.485-.507-1.142-.287-1.672.451-1.087.423-2.006-.091-2.982-.382-.724-1.408-1.445-2.27-1.322-.521.074-.899.443-1.009.986-.033.16-.042.332-.052.532-.026.493-.061 1.168-.486 1.983-.288.552-.385 1.121-.469 1.622-.122.718-.181 1.064-.575 1.197zm-3.242.892h2.052v8.21h-2.052v-8.21zm5.049-1.88c.073-.43.148-.875.345-1.252.551-1.056.598-1.958.626-2.496.007-.143.014-.279.028-.347v-.001c.217.003.75.296.948.671.342.65.354 1.17.042 1.92-.281.676-.26 1.461.018 2.158a.624.624 0 0 0 .087 1.243h6.422a.71.71 0 0 1 .494.189.639.639 0 0 1 .196.476c0 .335-.307.625-.671.633l-1.609.035a.625.625 0 0 0 .014 1.249h.014l1.34-.029c.044.124.066.36-.026.631-.078.23-.288.616-.817.616a.625.625 0 0 0 0 1.25c.095 0 .188-.006.279-.017.008.177-.029.384-.126.582-.115.234-.342.514-.77.514a.625.625 0 0 0 0 1.25c.065 0 .129-.003.192-.009a1.19 1.19 0 0 1-.094.434c-.098.236-.416.784-1.252.784h-3.608c-.655 0-1.335-.188-2.054-.387-.572-.159-1.159-.321-1.763-.393V13.86c1.407-.255 1.601-1.394 1.746-2.253zM16 4.75a.625.625 0 0 0 0-1.25.625.625 0 0 0 0 1.25z"/>
    </symbol>
    <symbol id="down-menu" viewBox="0 0 46 32">
      <path stroke-width="6.857" d="m4.571 4.571 18.286 18.286L41.143 4.571"/>
    </symbol>
  </defs>
</svg>
